<svg xmlns="http://www.w3.org/2000/svg" viewBox="0 0 512 512">
  <defs>
    <linearGradient id="bg" x1="64" y1="42" x2="448" y2="470" gradientUnits="userSpaceOnUse">
      <stop stop-color="#173B78"/>
      <stop offset="1" stop-color="#07162F"/>
    </linearGradient>
  </defs>
  <rect width="512" height="512" rx="112" fill="url(#bg)"/>
  <circle cx="250" cy="205" r="91" fill="#F2B38B"/>
  <path d="M166 199c4-70 38-111 91-111 52 0 87 37 89 100-27-8-49-26-66-52-22 30-61 52-114 63Z" fill="#172033"/>
  <path d="M164 388c9-94 49-139 91-139s83 45 92 139H164Z" fill="#20B7C5"/>
  <path d="M218 257c10 18 24 27 39 27 16 0 30-9 40-27v42c-10 19-23 28-40 28-16 0-29-9-39-28v-42Z" fill="#E79B73"/>
  <rect x="178" y="186" width="66" height="48" rx="20" fill="none" stroke="#F8FAFC" stroke-width="12"/>
  <rect x="270" y="186" width="66" height="48" rx="20" fill="none" stroke="#F8FAFC" stroke-width="12"/>
  <path d="M244 207h26" stroke="#F8FAFC" stroke-width="12" stroke-linecap="round"/>
  <circle cx="213" cy="208" r="8" fill="#172033"/>
  <circle cx="301" cy="208" r="8" fill="#172033"/>
  <path d="M230 244c17 14 36 14 53 0" fill="none" stroke="#8B4B3A" stroke-width="8" stroke-linecap="round"/>
  <rect x="82" y="356" width="344" height="42" rx="21" fill="#F8FAFC"/>
  <path d="M118 356h54l-28 42H90l28-42Zm96 0h54l-28 42h-54l28-42Zm96 0h54l-28 42h-54l28-42Z" fill="#EF4444"/>
  <rect x="394" y="326" width="42" height="116" rx="16" fill="#F8FAFC"/>
  <rect x="374" y="421" width="82" height="34" rx="17" fill="#F8FAFC"/>
</svg>
